<svg width="26" height="26" viewBox="0 0 26 26" fill="none" xmlns="http://www.w3.org/2000/svg">
<path d="M19.8896 20.8499H8.10955C7.79187 20.8501 7.48326 20.7439 7.23309 20.5481C6.98291 20.3523 6.80562 20.0783 6.72955 19.7699L4.07955 9.15986C4.05369 9.05657 4.05174 8.94874 4.07383 8.84458C4.09593 8.74042 4.1415 8.64267 4.20707 8.55878C4.27264 8.47489 4.35649 8.40706 4.45223 8.36046C4.54797 8.31386 4.65307 8.28971 4.75955 8.28986H23.2396C23.346 8.28971 23.4511 8.31386 23.5469 8.36046C23.6426 8.40706 23.7265 8.47489 23.792 8.55878C23.8576 8.64267 23.9032 8.74042 23.9253 8.84458C23.9474 8.94874 23.9454 9.05657 23.9196 9.15986L21.2696 19.7699C21.1935 20.0783 21.0162 20.3523 20.766 20.5481C20.5158 20.7439 20.2072 20.8501 19.8896 20.8499V20.8499Z" stroke="#151515" stroke-width="2.5" stroke-linecap="round" stroke-linejoin="round"/>
<path d="M11.7994 3.14993L8.89941 8.28993" stroke="#151515" stroke-width="2.5" stroke-linecap="round" stroke-linejoin="round"/>
<path d="M15.8799 3.14993L18.7899 8.28993" stroke="#151515" stroke-width="2.5" stroke-linecap="round" stroke-linejoin="round"/>
<path d="M0.564 24.296V22.976L4.488 17.36H6.444V22.832H7.5V24.296H6.444V26H4.764V24.296H0.564ZM4.872 19.16L2.412 22.832H4.872V19.16Z" fill="white"/>
</svg>
